# xmcd CD database file
#
# Track frame offsets:
#	150
#	17697
#	35125
#	45840
#	60640
#	80800
#	97490
#	117612
#	136915
#	153295
#	171517
#	186352
#	205330
#	221395
#	236890
#	250257
#	266942
#	281085
#	295482
#	309897
#	310560
#	311292
#	311882
#	312695
#	313802
#	314807
#	315655
#	316272
#	317297
#	317970
#	318675
#	319182
#	320220
#	321077
#	321797
#	322300
#	323002
#	324040
#	324972
#
# Disc length: 4343 seconds
#
# Revision: 0
# Processed by: cddbd v1.5.2PL0 Copyright (c) Steve Scherf et al.
# Submitted via: CDex 1.70beta2
#
DISCID=6010f527
DTITLE=Jones Country - Jones Country Recurrent CHC-1180
DYEAR=0000
DGENRE=Country
TTITLE0=Clint Black/Nothin' But The Taillights
TTITLE1=Clint Black and Martina McBride/Still Holding On
TTITLE2=Garth Brooks/Long Neck Bottle
TTITLE3=Brooks and Dunn/He's Got You
TTITLE4=Anita Cochran and Steve Wariner/What If I Said
TTITLE5=David Kersh/If I Never Stop Loving You
TTITLE6=Sammy Kershaw/Love Of My Life
TTITLE7=Alison Krauss and Keith Whitley/When You Say Nothing At All
TTITLE8=Patty Loveless/A Thousand Times A Day
TTITLE9=Patty Loveless/Trouble With The Truth
TTITLE10=Mindy McCready/What If I Do
TTITLE11=Reba McEntire/What If It's You
TTITLE12=Tim McGraw/Just To See Your Smile
TTITLE13=Collin Raye/Little Red Rodeo
TTITLE14=Sawyer Brown/Six Days On The Road
TTITLE15=Shania Twain/Don't Be Stupid (You Know I Love You)
TTITLE16=Clay Walker/Then What
TTITLE17=Wynonna/Come Some Rainy Day
TTITLE18=Wynonna/When Love Starts Talkin'
TTITLE19=CHC1180/Track 20
TTITLE20=CHC1180/Track 21
TTITLE21=CHC1180/Track 22
TTITLE22=CHC1180/Track 23
TTITLE23=CHC1180/Track 24
TTITLE24=CHC1180/Track 25
TTITLE25=CHC1180/Track 26
TTITLE26=CHC1180/Track 27
TTITLE27=CHC1180/Track 28
TTITLE28=CHC1180/Track 29
TTITLE29=CHC1180/Track 30
TTITLE30=CHC1180/Track 31
TTITLE31=CHC1180/Track 32
TTITLE32=CHC1180/Track 33
TTITLE33=CHC1180/Track 34
TTITLE34=CHC1180/Track 35
TTITLE35=CHC1180/Track 36
TTITLE36=CHC1180/Track 37
TTITLE37=CHC1180/Track 38
TTITLE38=CHC1180/Track 39
EXTD=YEAR: 0000
EXTT0=
EXTT1=
EXTT2=
EXTT3=
EXTT4=
EXTT5=
EXTT6=
EXTT7=
EXTT8=
EXTT9=
EXTT10=
EXTT11=
EXTT12=
EXTT13=
EXTT14=
EXTT15=
EXTT16=
EXTT17=
EXTT18=
EXTT19=
EXTT20=
EXTT21=
EXTT22=
EXTT23=
EXTT24=
EXTT25=
EXTT26=
EXTT27=
EXTT28=
EXTT29=
EXTT30=
EXTT31=
EXTT32=
EXTT33=
EXTT34=
EXTT35=
EXTT36=
EXTT37=
EXTT38=
PLAYORDER=
